<?xml version="1.0" encoding="UTF-8"?>
<svg xmlns="http://www.w3.org/2000/svg" xmlns:xlink="http://www.w3.org/1999/xlink" width="144pt" height="144pt" viewBox="0 0 144 144" version="1.1">
<g id="surface1">
<path style=" stroke:none;fill-rule:nonzero;fill:#5B5B5B;fill-opacity:1;" d="M 67.320313 0 C 66.949219 -0.0234375 66.511719 0.0546875 66.148438 0.179688 L 5.398438 20.609375 C 4.667969 20.859375 4.117188 21.363281 3.78125 22.050781 C 3.441406 22.734375 3.351563 23.488281 3.601563 24.210938 L 13.949219 54.808594 C 14.199219 55.542969 14.703125 56.09375 15.390625 56.429688 C 15.796875 56.632813 16.300781 56.699219 16.738281 56.699219 C 17.054688 56.699219 17.335938 56.710938 17.640625 56.609375 L 58.769531 42.480469 L 78.121094 36.179688 C 78.851563 35.945313 79.402344 35.425781 79.738281 34.738281 C 80.089844 34.054688 80.167969 33.222656 79.921875 32.488281 L 69.839844 1.980469 C 69.605469 1.25 69.085938 0.609375 68.398438 0.269531 C 68.0625 0.101563 67.691406 0.0234375 67.320313 0 Z M 80.910156 17.191406 L 85.410156 30.691406 C 86.128906 32.859375 85.894531 35.234375 84.871094 37.261719 C 83.835938 39.328125 82.125 40.859375 79.921875 41.578125 L 64.621094 46.621094 L 64.078125 48.328125 C 63.585938 49.835938 64.382813 51.515625 65.878906 52.019531 L 126.359375 72.179688 C 126.664063 72.28125 126.957031 72.269531 127.261719 72.269531 C 128.453125 72.269531 129.644531 71.574219 130.050781 70.378906 L 140.398438 40.140625 C 140.648438 39.410156 140.558594 38.578125 140.21875 37.890625 C 139.882813 37.203125 139.332031 36.699219 138.601563 36.449219 Z M 51.929688 47.070313 L 46.53125 49.050781 L 50.851563 60.390625 C 49.636719 61.335938 48.734375 62.707031 48.421875 64.261719 L 44.28125 83.070313 L 31.320313 89.28125 L 14.851563 89.28125 C 6.894531 89.886719 0 94.09375 0 101.699219 L 0 142.558594 C 0 143.359375 0.640625 144 1.441406 144 L 38.878906 144 C 39.679688 144 40.320313 143.359375 40.320313 142.558594 L 40.320313 106.109375 L 53.28125 95.578125 C 54.867188 94.308594 56.328125 92.046875 56.699219 90.179688 L 61.648438 67.140625 C 62.390625 63.460938 60.0625 59.804688 56.519531 59.039063 Z M 21.601563 89.28125 C 30.328125 89.28125 37.441406 82.171875 37.441406 73.441406 C 37.441406 64.710938 30.328125 57.601563 21.601563 57.601563 C 12.871094 57.601563 5.761719 64.710938 5.761719 73.441406 C 5.761719 82.171875 12.871094 89.28125 21.601563 89.28125 Z M 92.070313 64.261719 L 87.480469 76.320313 C 83.949219 77.074219 81.699219 80.71875 82.441406 84.421875 L 87.300781 107.460938 C 87.683594 109.351563 89.121094 111.589844 90.71875 112.859375 L 103.679688 121.949219 L 103.679688 142.558594 C 103.679688 143.359375 104.320313 144 105.121094 144 L 142.558594 144 C 143.359375 144 144 143.359375 144 142.558594 L 144 118.621094 C 144 110.9375 139.625 106.558594 131.941406 106.558594 L 112.679688 106.558594 L 99.71875 100.351563 L 95.578125 81.539063 C 95.265625 79.988281 94.355469 78.613281 93.148438 77.671875 L 97.46875 66.328125 Z M 122.398438 106.558594 C 131.128906 106.558594 138.238281 99.449219 138.238281 90.71875 C 138.238281 81.988281 131.128906 74.878906 122.398438 74.878906 C 113.671875 74.878906 106.558594 81.988281 106.558594 90.71875 C 106.558594 99.449219 113.671875 106.558594 122.398438 106.558594 Z "/>
</g>
</svg>
